<?xml version="1.0" encoding="utf-8"?>
<!-- Generator: Adobe Illustrator 16.0.0, SVG Export Plug-In . SVG Version: 6.00 Build 0)  -->
<!DOCTYPE svg PUBLIC "-//W3C//DTD SVG 1.1//EN" "http://www.w3.org/Graphics/SVG/1.1/DTD/svg11.dtd">
<svg version="1.1" id="Layer_1" xmlns="http://www.w3.org/2000/svg" xmlns:xlink="http://www.w3.org/1999/xlink" x="0px" y="0px"
	 width="16px" height="16px" viewBox="0 0 16 16" enable-background="new 0 0 16 16" xml:space="preserve">
<symbol  id="TabBar-tab_x5F_over">
</symbol>
<use xlink:href="#TabBar-tab_x5F_over"  width="-32766" height="-32766" id="XMLID_1_" x="16383" y="16383" transform="matrix(1.6398 0 0 -1.904 -199.9346 -222.9077)" overflow="visible"/>
<path fill="#425769" d="M11,0.7v1.9c2,1.1,3.3,3.1,3.3,5.4c0,3.4-2.8,6.2-6.2,6.2c-3.5,0-6.3-2.8-6.3-6.2c0-1.4,0.5-2.7,1.3-3.7
	L5,6.2L6.2,0L0,1.2l1.9,1.9C0.8,4.5,0.1,6.2,0.1,8.1c0,4.4,3.6,7.9,8,7.9c4.4,0,7.9-3.6,7.9-7.9C16,4.8,14,2,11,0.7z"/>
</svg>
