<?xml version="1.0" encoding="utf-8"?>
<!-- Generator: Adobe Illustrator 16.0.0, SVG Export Plug-In . SVG Version: 6.00 Build 0)  -->
<!DOCTYPE svg PUBLIC "-//W3C//DTD SVG 1.1//EN" "http://www.w3.org/Graphics/SVG/1.1/DTD/svg11.dtd">
<svg version="1.1" id="Layer_1" xmlns="http://www.w3.org/2000/svg" xmlns:xlink="http://www.w3.org/1999/xlink" x="0px" y="0px"
	 width="16px" height="16px" viewBox="0 0 16 16" enable-background="new 0 0 16 16" xml:space="preserve">
<symbol  id="TabBar-tab_x5F_over">
</symbol>
<use xlink:href="#TabBar-tab_x5F_over"  width="-32766" height="-32766" id="XMLID_1_" x="16383" y="16383" transform="matrix(1.6398 0 0 -1.904 -199.9346 -222.9077)" overflow="visible"/>
<path fill="#425769" d="M13,0H1C0.4,0,0,0.4,0,1v14c0,0.6,0.4,1,1,1h14c0.6,0,1-0.4,1-1V3C16,2.4,13.6,0,13,0z M2,2c0-0.6,0.4-1,1-1
	h8c0.6,0,1,0.4,1,1v3c0,0.6-0.4,1-1,1H3C2.4,6,2,5.6,2,5V2z M14,14c0,0.6-0.4,1-1,1H3c-0.6,0-1-0.4-1-1V9c0-0.6,0.4-1,1-1h10
	c0.6,0,1,0.4,1,1V14z M11,2H9v3h2V2z M11.6,10H4.4C4.2,10,4,10.2,4,10.5v0.1C4,10.8,4.2,11,4.4,11h7.1c0.2,0,0.4-0.2,0.4-0.5v-0.1
	C12,10.2,11.8,10,11.6,10z M11.6,12H4.4C4.2,12,4,12.2,4,12.5v0.1C4,12.8,4.2,13,4.4,13h7.1c0.2,0,0.4-0.2,0.4-0.5v-0.1
	C12,12.2,11.8,12,11.6,12z"/>
</svg>
